<mxfile host="65bd71144e">
    <diagram id="OgyGbuL2-tw2WiIKQ-cd" name="Page-1">
        <mxGraphModel dx="983" dy="1051" grid="1" gridSize="10" guides="1" tooltips="1" connect="1" arrows="1" fold="1" page="1" pageScale="1" pageWidth="850" pageHeight="1100" math="0" shadow="0">
            <root>
                <mxCell id="0"/>
                <mxCell id="1" parent="0"/>
                <mxCell id="2" value="" style="whiteSpace=wrap;html=1;aspect=fixed;" vertex="1" parent="1">
                    <mxGeometry x="65" y="130" width="720" height="720" as="geometry"/>
                </mxCell>
                <mxCell id="3" value="&amp;nbsp;NAVBAR&amp;nbsp; -REVIEWS- -GAMES- -SIGN IN-" style="rounded=1;whiteSpace=wrap;html=1;" vertex="1" parent="1">
                    <mxGeometry x="90" y="150" width="660" height="60" as="geometry"/>
                </mxCell>
                <mxCell id="6" value="SEARCH BAR" style="rounded=1;whiteSpace=wrap;html=1;" vertex="1" parent="1">
                    <mxGeometry x="603" y="165" width="130" height="30" as="geometry"/>
                </mxCell>
                <mxCell id="7" value="TITLE" style="rounded=1;whiteSpace=wrap;html=1;" vertex="1" parent="1">
                    <mxGeometry x="110" y="165" width="130" height="30" as="geometry"/>
                </mxCell>
                <mxCell id="8" value="RECENT RELEASES" style="rounded=1;whiteSpace=wrap;html=1;" vertex="1" parent="1">
                    <mxGeometry x="100" y="420" width="200" height="275" as="geometry"/>
                </mxCell>
                <mxCell id="9" value="UPCOMING" style="rounded=1;whiteSpace=wrap;html=1;" vertex="1" parent="1">
                    <mxGeometry x="320" y="420" width="200" height="275" as="geometry"/>
                </mxCell>
                <mxCell id="10" value="MOST PLAYED" style="rounded=1;whiteSpace=wrap;html=1;" vertex="1" parent="1">
                    <mxGeometry x="540" y="420" width="200" height="275" as="geometry"/>
                </mxCell>
                <mxCell id="11" value="" style="rounded=1;whiteSpace=wrap;html=1;" vertex="1" parent="1">
                    <mxGeometry x="118" y="270" width="615" height="120" as="geometry"/>
                </mxCell>
                <mxCell id="12" value="TOP GAMES (GENRE)" style="rounded=1;whiteSpace=wrap;html=1;" vertex="1" parent="1">
                    <mxGeometry x="160" y="280" width="110" height="100" as="geometry"/>
                </mxCell>
                <mxCell id="13" value="TOP GAMES (GENRE)" style="rounded=1;whiteSpace=wrap;html=1;" vertex="1" parent="1">
                    <mxGeometry x="290" y="280" width="110" height="100" as="geometry"/>
                </mxCell>
                <mxCell id="14" value="TOP GAMES (GENRE)" style="rounded=1;whiteSpace=wrap;html=1;" vertex="1" parent="1">
                    <mxGeometry x="420" y="280" width="110" height="100" as="geometry"/>
                </mxCell>
                <mxCell id="15" value="TOP GAMES (GENRE)" style="rounded=1;whiteSpace=wrap;html=1;" vertex="1" parent="1">
                    <mxGeometry x="570" y="280" width="110" height="100" as="geometry"/>
                </mxCell>
                <mxCell id="16" value="POPULAR REVIEWS (LIST)" style="rounded=1;whiteSpace=wrap;html=1;" vertex="1" parent="1">
                    <mxGeometry x="130" y="750" width="580" height="60" as="geometry"/>
                </mxCell>
                <mxCell id="17" value="home page" style="text;html=1;strokeColor=none;fillColor=none;align=center;verticalAlign=middle;whiteSpace=wrap;rounded=0;" vertex="1" parent="1">
                    <mxGeometry x="350" y="60" width="90" height="30" as="geometry"/>
                </mxCell>
            </root>
        </mxGraphModel>
    </diagram>
</mxfile>